<svg width="42" height="43" viewBox="0 0 42 43" fill="none" xmlns="http://www.w3.org/2000/svg">
<path d="M5 0C2.25048 0 0 2.25048 0 5V37C0 39.7495 2.25048 42 5 42H21.832C21.94 42.0178 22.0502 42.0178 22.1582 42H27.832C27.94 42.0178 28.0502 42.0178 28.1582 42H37C39.7495 42 42 39.7495 42 37V5C42 2.25048 39.7495 0 37 0H5ZM5 2H37C38.6685 2 40 3.33152 40 5V37C40 38.6685 38.6685 40 37 40H29V26H32.8203L34.2207 19H29V17C29 16.4425 29.0531 16.3989 29.2402 16.2773C29.4274 16.1558 30.0058 16 31 16H34V10.3691L33.4297 10.0977C33.4297 10.0977 31.1326 9 28 9C25.75 9 23.9016 9.89645 22.7188 11.375C21.5359 12.8535 21 14.8333 21 17V19H18V26H21V40H5C3.33152 40 2 38.6685 2 37V5C2 3.33152 3.33152 2 5 2ZM28 11C30.0791 11 31.3874 11.4585 32 11.7012V14H31C29.8492 14 28.927 14.0952 28.1504 14.5996C27.3738 15.104 27 16.0615 27 17V21H31.7793L31.1797 24H27V40H23V24H20V21H23V17C23 15.1667 23.4641 13.6465 24.2812 12.625C25.0984 11.6035 26.25 11 28 11Z" fill="white"/>
</svg>
