<svg width="48" height="36" viewBox="0 0 48 36" fill="none" xmlns="http://www.w3.org/2000/svg">
<path d="M4.5 0C2.03125 0 0.011719 2.01562 0 4.48438C0 4.48438 0 4.48828 0 4.49219C0 4.49609 0 4.49609 0 4.5V31.5C0 33.9727 2.02734 36 4.5 36H43.5C45.9727 36 48 33.9727 48 31.5V4.5C48 4.49609 48 4.49609 48 4.49219C48 4.48828 48 4.48438 48 4.48438C47.9883 2.01562 45.9688 0 43.5 0H4.5ZM7.10156 2H40.9023L24 13.7812L7.10156 2ZM3.77344 2.11719L24 16.2188L44.2305 2.11719C45.2539 2.42578 45.9922 3.35547 46 4.48828C45.9961 4.69922 45.7812 5.12109 45.4688 5.46094C45.1523 5.80469 44.8438 6.01953 44.8438 6.01953L44.8398 6.02734L24 20.7773L3.16016 6.02734L3.15625 6.01953C3.15625 6.01953 2.84766 5.80469 2.53125 5.46094C2.21875 5.12109 2.00391 4.69922 2 4.48828C2.00781 3.35547 2.74609 2.42578 3.77344 2.11719ZM2 7.65234L2.00781 7.66016L2.01562 7.66406V7.66797L5 9.77734V34H4.5C3.10938 34 2 32.8906 2 31.5V7.65234ZM46 7.65234V31.5C46 32.8906 44.8906 34 43.5 34H43V9.77734L45.9844 7.66797V7.66406L46 7.65234ZM7 11.1914L24 23.2227L41 11.1914V34H7V11.1914Z" fill="white"/>
</svg>
